<?xml version="1.0" encoding="utf-8"?>
<!-- Generator: Adobe Illustrator 27.9.0, SVG Export Plug-In . SVG Version: 6.00 Build 0)  -->
<svg version="1.1" id="Layer_2_00000062895483866567710630000009465750840147949743_"
	 xmlns="http://www.w3.org/2000/svg" xmlns:xlink="http://www.w3.org/1999/xlink" x="0px" y="0px" viewBox="0 0 312 59"
	 style="enable-background:new 0 0 312 59;" xml:space="preserve">
<style type="text/css">
	.st0{fill:none;}
	.st1{clip-path:url(#SVGID_00000178189804381631400230000011935935936715142806_);}
	.st2{clip-path:url(#SVGID_00000023965968363131534080000015444854245843888046_);}
	.st3{fill:#BC4D4D;}
	.st4{fill:#FA6863;}
	.st5{fill:#B55D37;}
	.st6{fill:#F18046;}
	.st7{fill:#0D9177;}
	.st8{fill:#3177BC;}
	.st9{fill:#3D95FD;}
	.st10{fill:#0DC09D;}
	.st11{fill:#F2F2F2;}
	.st12{font-family:'PTMono-Regular';}
	.st13{font-size:38.21px;}
</style>
<g id="Layer_1-2">
	<rect x="0" class="st0" width="308" height="59"/>
	<g>
		<defs>
			<rect id="SVGID_1_" y="9.9" width="205" height="40"/>
		</defs>
		<clipPath id="SVGID_00000120523701191047900060000008415526642265104314_">
			<use xlink:href="#SVGID_1_"  style="overflow:visible;"/>
		</clipPath>
		<g style="clip-path:url(#SVGID_00000120523701191047900060000008415526642265104314_);">
			<g>
				<g>
					<defs>
						<rect id="SVGID_00000038378963960469239990000006669936477503335046_" y="9.9" width="39.8" height="40"/>
					</defs>
					<clipPath id="SVGID_00000059269557265803985990000006694055920891621801_">
						<use xlink:href="#SVGID_00000038378963960469239990000006669936477503335046_"  style="overflow:visible;"/>
					</clipPath>
					<g style="clip-path:url(#SVGID_00000059269557265803985990000006694055920891621801_);">
						<g>
							<path class="st3" d="M33.8,30.6L33.8,30.6l0.1,0l0,0l0,0l0,0l0,0l0,0l0,0l0,0l0,0l0,0l0,0l0,0l0,0l0,0l0,0l0,0l0,0l0,0l0,0.1
								l0,0.1l0,0.1v0.1l0,0.1v0.1v0.1v0.1v0.1v0.1V32V32l0,0.1l0,0.1l0,0.1l0,0.1l0,0l0,0l0,0l0,0l0,0l0,0l0,0l0,0l0,0l0,0l0,0l0,0
								l0,0l0,0l0,0l0,0l0,0l-0.1,0l-0.1,0l-0.1,0h-0.1l-0.1,0h-0.1l-0.1,0h-0.1l0,0h0.1h0.1h0.1l0.1,0H34l0.1,0l0.1,0l0.1,0l0.1,0
								l0.1,0l0.1,0l0.1,0l0.1,0l0.1,0l0.1,0l0.1,0l0.1,0l0.1,0l0.1,0l0.1,0l0.1-0.1l0.1-0.1l0.1-0.1l0.1-0.1l0.1-0.1l0.1-0.1
								l0.1-0.1l0.1-0.1l0.1-0.1l0.1-0.1l0.1-0.1l0.1-0.1l0.1-0.1l0.1-0.1l0.1-0.1l0.1-0.1l0.1-0.1l0.1-0.1l0.1-0.1l0-0.1l0-0.1
								l0-0.1l0-0.1l0-0.1l0-0.1l0-0.1l0-0.1l0-0.1l0-0.1l0-0.1l0-0.1l0-0.1l0-0.1l0-0.1v-0.1l0-0.1v-0.1l0-0.1V29v-0.1v-0.1l0-0.1
								v-0.1l0-0.1l0-0.1l0-0.1l0-0.1l0-0.1l0-0.1h-4h-9.2L33.8,30.6L33.8,30.6L33.8,30.6z"/>
							<path class="st4" d="M39.8,31.5v-0.1l0-0.1v-0.1l0-0.1l0-0.1l0-0.1l0-0.1l0-0.1l0-0.1l0-0.1l0-0.1l0-0.1l0-0.1l0-0.1l0-0.1
								l0-0.1l0-0.1l0-0.1L39.2,29l-0.1-0.1l-0.1-0.1L39,28.7L39,28.5l-0.1-0.1l-0.1-0.1l-0.1-0.1l-0.1-0.1L38.6,28l0,0h-1.2l0,0.1
								l0,0.1l0,0.1l0,0.1l0,0.1v0.1l0,0.1v0.1l0,0.1V29v0.1v0.1l0,0.1v0.1l0,0.1l0,0.1l0,0.1l0,0.1l0,0.1l0,0.1l0,0.1l0,0.1l0,0.1
								l0,0.1l0,0.1l0,0.1l0,0.1l0,0.1l0,0.1l0,0.1l-0.1,0.1l-0.1,0.1l-0.1,0.1l-0.1,0.1l-0.1,0.1l-0.1,0.1l-0.1,0.1l-0.1,0.1
								l-0.1,0.1L36.2,32L36.2,32l-0.1,0.1L36,32.2l-0.1,0.1l-0.1,0.1l-0.1,0.1l-0.1,0.1l-0.1,0.1l-0.1,0.1l-0.1,0l-0.1,0l-0.1,0
								l-0.1,0l-0.1,0l-0.1,0l-0.1,0l-0.1,0l-0.1,0l-0.1,0l-0.1,0l-0.1,0l-0.1,0l-0.1,0l-0.1,0h-0.1l-0.1,0h-0.1l-0.1,0h-0.1H0v5.2
								h33.5h0.1h0.1l0.1,0h0.1l0.1,0l0.1,0l0.1,0l0.1,0l0.1,0l0.1,0l0.1,0l0.1,0l0.1,0l0.1,0l0.1,0l0.1,0l0.1,0l0.1,0l0.1,0
								l0.1-0.1l0.1-0.1l0.1-0.1l0.1-0.1l0.1-0.1l0.1-0.1l0.1-0.1l0.1-0.1l0.1-0.1l0.1-0.1l0.1-0.1l0.1-0.1l0.1-0.1l0.1-0.1l0.1-0.1
								l0.1-0.1l0.1-0.1l0.1-0.1l0.1-0.1l0.1-0.1l0.1-0.1l0.1-0.1l0.1-0.1l0.1-0.1l0.1-0.1l0.1-0.1l0.1-0.1l0.1-0.1l0.1-0.1L39,35
								l0.1-0.1l0.1-0.1l0.1-0.1l0.1-0.1l0-0.1l0-0.1l0-0.1l0-0.1l0-0.1l0-0.1l0-0.1l0-0.1l0-0.1l0-0.1l0-0.1l0-0.1l0-0.1l0-0.1
								l0-0.1v-0.1l0-0.1v-0.1l0-0.1v-0.1v-0.1L39.8,31.5L39.8,31.5z"/>
							<path class="st5" d="M6,29.1L6,29.1l-0.1,0l-0.1,0l-0.1,0l-0.1,0l-0.1,0l-0.1,0l-0.1,0l0,0l0,0l0,0l0,0l0,0l0,0l0,0l0,0l0,0
								l0,0l0,0l0-0.1l0-0.1l0-0.1v-0.1l0-0.1V28V28v-0.1v-0.1v-0.1v-0.1v-0.1l0-0.1l0-0.1l0-0.1l0-0.1l0,0l0,0l0,0l0,0l0,0l0,0l0,0
								l0,0l0,0l0,0l0,0l0.1,0l0.1,0l0.1,0l0.1,0l0.1,0l0.1,0l0.1,0l0.1,0l0.1,0h0.1l0.1,0h0.1l0.1,0h0.1h0H6.2l-0.1,0H6l-0.1,0
								l-0.1,0l-0.1,0l-0.1,0l-0.1,0l-0.1,0l-0.1,0l-0.1,0l-0.1,0l-0.1,0l-0.1,0l-0.1,0l-0.1,0l-0.1,0l-0.1,0l-0.1,0l-0.1,0.1
								l-0.1,0.1l-0.1,0.1L4,27.5l-0.1,0.1l-0.1,0.1l-0.1,0.1l-0.1,0.1l-0.1,0.1l-0.1,0.1L3.4,28l-0.1,0.1l-0.1,0.1l-0.1,0.1
								l-0.1,0.1l-0.1,0.1L3,28.5L3,28.6l-0.1,0.1l0,0.1l0,0.1l0,0.1l0,0.1l0,0.1l0,0.1l0,0.1l0,0.1l0,0.1l0,0.1l0,0.1l0,0.1l0,0.1
								l0,0.1l0,0.1v0.1l0,0.1v0.1l0,0.1v0.1v0.1V31l0,0.1v0.1l0,0.1l0,0.1l0,0.1l0,0.1l0,0.1l0,0.1h3.9h9.2L6,29.1L6,29.1L6,29.1z"
								/>
							<path class="st6" d="M0,28.2v0.1l0,0.1v0.1l0,0.1l0,0.1l0,0.1l0,0.1l0,0.1l0,0.1l0,0.1l0,0.1l0,0.1l0,0.1l0,0.1l0.1,0.1
								l0.1,0.1l0.1,0.1l0.1,0.1l0.1,0.1l0.1,0.1l0.1,0.1l0.1,0.1l0.1,0.1l0.1,0.1L1,31.4l0.1,0.1l0.1,0.1l0.1,0.1l0,0h1.2l0-0.1
								l0-0.1l0-0.1l0-0.1l0-0.1v-0.1l0-0.1v-0.1l0-0.1v-0.1v-0.1v-0.1l0-0.1v-0.1l0-0.1l0-0.1l0-0.1l0-0.1l0-0.1l0-0.1l0-0.1l0-0.1
								l0-0.1l0-0.1l0-0.1l0-0.1l0-0.1l0-0.1l0-0.1l0-0.1L3,28.5L3,28.5l0.1-0.1l0.1-0.1l0.1-0.1l0.1-0.1L3.3,28l0.1-0.1l0.1-0.1
								l0.1-0.1l0.1-0.1l0.1-0.1l0.1-0.1l0.1-0.1L4,27.4l0.1-0.1l0.1-0.1l0.1-0.1l0.1-0.1l0.1,0l0.1,0l0.1,0l0.1,0l0.1,0l0.1,0
								l0.1,0l0.1,0l0.1,0l0.1,0l0.1,0l0.1,0l0.1,0l0.1,0l0.1,0H6l0.1,0h0.1l0.1,0h0.1h33.4v-5.2H6.3H6.2H6l-0.1,0H5.7l-0.1,0
								l-0.1,0l-0.1,0l-0.1,0l-0.1,0l-0.1,0l-0.1,0l-0.1,0l-0.1,0l-0.1,0l-0.1,0l-0.1,0l-0.1,0l-0.1,0l-0.1,0l-0.1,0.1l-0.1,0.1
								l-0.1,0.1l-0.1,0.1l-0.1,0.1l-0.1,0.1l-0.1,0.1l-0.1,0.1l-0.1,0.1l-0.1,0.1l-0.1,0.1l-0.1,0.1L2.3,23L2.2,23l-0.1,0.1L2,23.2
								l-0.1,0.1l-0.1,0.1l-0.1,0.1l-0.1,0.1l-0.1,0.1l-0.1,0.1l-0.1,0.1L1.3,24l-0.1,0.1l-0.1,0.1L1,24.4L1,24.5l-0.1,0.1l-0.1,0.1
								l-0.1,0.1L0.7,25l-0.1,0.1l-0.1,0.1l-0.1,0.1l-0.1,0.1l-0.1,0.1l-0.1,0.1l0,0.1l0,0.1l0,0.1l0,0.1l0,0.1l0,0.1l0,0.1l0,0.1
								l0,0.1l0,0.1l0,0.1v0.1l0,0.1v0.1l0,0.1L0,28.2L0,28.2z"/>
							<path class="st7" d="M6,17.5L6,17.5l-0.1,0l-0.1,0l-0.1,0l-0.1,0l-0.1,0l-0.1,0l-0.1,0l0,0l0,0l0,0l0,0l0,0l0,0l0,0l0,0l0,0
								l0,0l0,0l0-0.1l0-0.1v-0.1l0-0.1v-0.1l0-0.1v-0.1v-0.1v-0.1v-0.1v-0.1l0-0.1V16l0-0.1l0-0.1l0-0.1l0-0.1l0-0.1l0-0.1l0-0.1
								l0-0.1l0-0.1l0,0l0-0.1l0,0l0,0l0,0l0.1,0l0.1,0l0.1,0l0.1,0l0.1,0l0.1,0l0.1,0l0.1,0l0.1,0l0.1,0h0.1l0.1,0h0.1l0.1,0h0H6.2
								l-0.1,0H6l-0.1,0l-0.1,0l-0.1,0l-0.1,0l-0.1,0l-0.1,0l-0.1,0l-0.1,0l-0.1,0l-0.1,0l-0.1,0l-0.1,0l-0.1,0.1l-0.1,0.1l-0.1,0.1
								l-0.1,0.1l-0.1,0.1l-0.1,0.1l-0.1,0.1L4,15.8l-0.1,0.1L3.8,16L3.7,16l-0.1,0.1l-0.1,0.1l-0.1,0.1l-0.1,0.1l-0.1,0.1l-0.1,0.1
								l-0.1,0.1l-0.1,0.1l-0.1,0.1L3,16.9L3,16.9L2.9,17l0,0.1l0,0.1l0,0.1l0,0.1l0,0.1l0,0.1l0,0.1l0,0.1l0,0.1l0,0.1l0,0.1l0,0.1
								l0,0.1l0,0.1l0,0.1v0.1l0,0.1v0.1l0,0.1v0.1v0.1v0.1l0,0.1v0.1l0,0.1l0,0.1l0,0.1l0,0.1l0,0.1l0,0.1l0,0.1l0,0.1l0,0.1l0,0.1
								l0,0.1l0,0.1l0,0.1l0,0.1l0,0.1l0,0L3,21L3.1,21l0.1-0.1l0.1-0.1l0.1-0.1l0.1,0l0.1,0l0.1,0l0.1,0l0.1,0l0.1,0l0.1,0l0.2,0
								l0.2,0l0.2,0l0.2,0l0.2,0l0.2,0l0.2,0l0.2,0h0.2l0.2,0h0.2h0.2h0.2h9.2L6,17.5L6,17.5L6,17.5z"/>
							<path class="st8" d="M33.4,44.7h0.2l0.1,0h0.1l0.1,0l0.1,0l0.1,0l0.1,0l0.1,0l0.1,0l0.1,0l0.1,0l0.1,0l0.1,0l0.1,0l0.1,0
								l0.1,0l0.1,0l0.1,0l0.1,0l0.1-0.1l0.1-0.1l0.1-0.1l0.1-0.1l0.1-0.1l0.1-0.1l0.1-0.1l0.1-0.1l0.1-0.1l0.1-0.1l0.1-0.1l0.1-0.1
								l0.1-0.1l0.1-0.1l0.1-0.1l0.1-0.1l0.1-0.1l0.1-0.1l0.1-0.1l0-0.1l0-0.1l0-0.1l0-0.1l0-0.1l0-0.1l0-0.1l0-0.1l0-0.1l0-0.1
								l0-0.1l0-0.1l0-0.1l0-0.1l0-0.1V41l0-0.1v-0.1l0-0.1v-0.3l0-0.1v-0.1l0-0.1l0-0.1l0-0.1l0-0.1l0-0.1l0-0.1l0-0.1l0-0.1l0-0.1
								l0-0.1l0-0.1l0-0.1l0-0.1l0-0.1l0-0.1l0,0l-0.1,0.1l-0.1,0.1l-0.1,0.1l-0.1,0.1l-0.1,0.1L36.2,39l-0.1,0l-0.1,0l-0.1,0
								l-0.1,0l-0.1,0l-0.2,0l-0.1,0l-0.2,0l-0.2,0l-0.2,0l-0.2,0l-0.2,0l-0.2,0l-0.2,0H34l-0.2,0h-0.2l-0.2,0h-0.2h-9.2l9.5,2.6
								l0.1,0l0.1,0l0.1,0l0,0l0,0l0,0l0,0l0,0l0,0l0,0l0,0l0,0l0,0l0,0l0,0l0,0l0,0l0,0l0,0l0,0l0,0.1l0,0.1l0,0.1v0.1l0,0.1v0.1
								v0.1v0.1v0.1v0.1v0.1v0.1l0,0.1l0,0.1l0,0.1l0,0.1l0,0l0,0l0,0l0,0l0,0l0,0l0,0l0,0l0,0l0,0l0,0l0,0l0,0l0,0l0,0l0,0l0,0
								l-0.1,0l-0.1,0l-0.1,0h-0.1l-0.1,0h-0.1l-0.1,0L33.4,44.7L33.4,44.7"/>
							<path class="st9" d="M39.8,43.1V43l0-0.1v-0.1l0-0.1l0-0.1l0-0.1l0-0.1l0-0.1l0-0.1l0-0.1l0-0.1l0-0.1l0-0.1l0-0.1l0-0.1
								l0-0.1l0-0.1l-0.1-0.1l-0.1-0.1l-0.1-0.1l-0.1-0.1L39,40.3L39,40.1L38.9,40l-0.1-0.1l-0.1-0.1l-0.1-0.1l-0.1-0.1l-0.1-0.1
								l-0.1-0.1l-0.1-0.1l-0.1-0.1L38.1,39l-0.1-0.1L38,38.8l-0.1-0.1l-0.1-0.1l-0.1-0.1l-0.1-0.1l-0.1-0.1l0,0l-0.2,0.1l-0.1,0.1
								L37,38.6h0l0,0.1l0,0.1l0,0.1l0,0.1l0,0.1l0,0.1l0,0.1l0,0.1l0,0.1l0,0.1l0,0.1l0,0.1l0,0.1l0,0.1v0.1l0,0.1v0.1l0,0.1v0.3
								l0,0.1v0.1l0,0.1l0,0.1l0,0.1l0,0.1l0,0.1l0,0.1l0,0.1l0,0.1l0,0.1l0,0.1l0,0.1l0,0.1l0,0.1l0,0.1l0,0.1l0,0.1l-0.1,0.1
								l-0.1,0.1L36.8,43l-0.1,0.1l-0.1,0.1l-0.1,0.1l-0.1,0.1l-0.1,0.1l-0.1,0.1l-0.1,0.1l-0.1,0.1l-0.1,0.1L36,43.8L36,43.9
								l-0.1,0.1L35.8,44l-0.1,0.1l-0.1,0.1l-0.1,0.1l-0.1,0l-0.1,0l-0.1,0l-0.1,0l-0.1,0l-0.1,0l-0.1,0l-0.1,0l-0.1,0l-0.1,0
								l-0.1,0l-0.1,0l-0.1,0l-0.1,0l-0.1,0h-0.1l-0.1,0h-0.1l-0.1,0H0v5.2h33.5h0.1h0.1l0.1,0h0.1l0.1,0l0.1,0l0.1,0l0.1,0l0.1,0
								l0.1,0l0.1,0l0.1,0l0.1,0l0.1,0l0.1,0l0.1,0l0.1,0l0.1,0l0.1,0l0.1-0.1l0.1-0.1l0.1-0.1l0.1-0.1l0.1-0.1l0.1-0.1l0.1-0.1
								l0.1-0.1l0.1-0.1l0.1-0.1l0.1-0.1l0.1-0.1l0.1-0.1l0.1-0.1l0.1-0.1l0.1-0.1L38,48l0.1-0.1l0.1-0.1l0.1-0.1l0.1-0.1l0.1-0.1
								l0.1-0.1l0.1-0.1l0.1-0.1l0.1-0.1l0.1-0.1l0.1-0.1l0.1-0.1l0.1-0.1l0.1-0.1l0.1-0.1l0.1-0.1l0.1-0.1l0.1-0.1l0-0.1l0-0.1
								l0-0.1l0-0.1l0-0.1l0-0.1l0-0.1l0-0.1l0-0.1l0-0.1l0-0.1l0-0.1l0-0.1v-0.1l0-0.1v-0.1l0-0.1v-0.1v-0.1L39.8,43.1L39.8,43.1z"
								/>
							<path class="st10" d="M0,16.6v0.1l0,0.1V17l0,0.1l0,0.1l0,0.1l0,0.1l0,0.1l0,0.1l0,0.1l0,0.1l0,0.1l0,0.1l0,0.1l0.1,0.1
								l0.1,0.1l0.1,0.1L0.6,19l0.1,0.1l0.1,0.1l0.1,0.1l0.1,0.1l0.1,0.1L1,19.7L1,19.8l0.1,0.1L1.2,20l0.1,0.1l0.1,0.1l0.1,0.1
								l0.1,0.1l0.1,0.1l0.1,0.1l0.1,0.1l0.1,0.1L2,21L2.1,21l0.1,0.1l0.1,0.1l0.1,0.1l0,0l0.2-0.1l0.1-0.1l0.1-0.1h0l0-0.1l0-0.1
								l0-0.1l0-0.1l0-0.1l0-0.1l0-0.1l0-0.1l0-0.1l0-0.1l0-0.1l0-0.1l0-0.1l0-0.1v-0.1l0-0.1v-0.1l0-0.1v-0.1V19v-0.1l0-0.1v-0.1
								l0-0.1l0-0.1l0-0.1l0-0.1l0-0.1l0-0.1l0-0.1l0-0.1l0-0.1l0-0.1l0-0.1l0-0.1l0-0.1l0-0.1l0-0.1l0-0.1L3,16.9L3,16.8l0.1-0.1
								l0.1-0.1l0.1-0.1l0.1-0.1l0.1-0.1l0.1-0.1l0.1-0.1l0.1-0.1l0.1-0.1L3.7,16l0.1-0.1l0.1-0.1L4,15.8l0.1-0.1l0.1-0.1l0.1-0.1
								l0.1-0.1l0.1-0.1l0.1-0.1l0.1-0.1l0.1-0.1l0.1,0l0.1,0l0.1,0l0.1,0l0.1,0l0.1,0l0.1,0l0.1,0l0.1,0l0.1,0l0.1,0H6l0.1,0h0.1
								l0.1,0h33.5V9.8H6.2L6,9.8H5.9l-0.1,0l-0.1,0l-0.1,0l-0.1,0l-0.1,0l-0.1,0l-0.1,0l-0.1,0l-0.1,0l-0.1,0l-0.1,0l-0.1,0
								l-0.1,0.1L4,10.3l-0.1,0.1l-0.1,0.1l-0.1,0.1l-0.1,0.1l-0.1,0.1l-0.1,0.1l-0.1,0.1l-0.1,0.1L3,10.8l-0.1,0.1L2.7,11l-0.1,0.1
								l-0.1,0.1l-0.1,0.1l-0.1,0.1l-0.1,0.1l-0.1,0.1L2,11.6l-0.1,0.1l-0.1,0.1l-0.1,0.1L1.6,12l-0.1,0.1l-0.1,0.1l-0.1,0.1
								l-0.1,0.1l-0.1,0.1l-0.1,0.1L1,12.8L1,12.9L0.9,13l-0.1,0.1l-0.1,0.1l-0.1,0.1l-0.1,0.1l-0.1,0.1l-0.1,0.1l-0.1,0.1L0.4,14
								l-0.1,0.1l0,0.1l0,0.1l0,0.1l0,0.1l0,0.1l0,0.1l0,0.1l0,0.1l0,0.1l0,0.1l0,0.1v0.1l0,0.1V16l0,0.1L0,16.6L0,16.6z"/>
						</g>
					</g>
				</g>
				<path class="st11" d="M61.8,42.5H51.6v-4h10.2c1.6,0,2.8-0.3,3.7-0.9c0.9-0.6,1.3-1.4,1.3-2.4s-0.4-1.7-1.2-2.1s-2-0.8-3.6-1.1
					l-1.7-0.3c-1.6-0.3-3.1-0.7-4.4-1.3c-1.3-0.5-2.4-1.3-3.2-2.3c-0.8-1-1.2-2.2-1.2-3.8c0-2.3,0.8-4,2.5-5.3s3.9-1.9,6.7-1.9h10
					v4.1h-10c-1.4,0-2.4,0.2-3.2,0.8c-0.8,0.5-1.2,1.2-1.2,2.1c0,1,0.4,1.7,1.1,2.1c0.8,0.5,1.8,0.8,3.1,1l1.7,0.3
					c1.7,0.3,3.3,0.7,4.7,1.2c1.4,0.5,2.5,1.3,3.4,2.2c0.8,1,1.2,2.3,1.2,3.9c0,2.4-0.9,4.3-2.7,5.6C67.2,41.9,64.8,42.5,61.8,42.5
					L61.8,42.5L61.8,42.5z"/>
				<path class="st11" d="M123.2,49.8V38.6h-0.8c-0.4,0.7-0.9,1.3-1.6,1.9c-0.7,0.6-1.5,1.1-2.6,1.5c-1.1,0.4-2.3,0.6-3.9,0.6
					c-2,0-3.8-0.5-5.5-1.5s-3-2.4-4-4.2c-1-1.8-1.5-4-1.5-6.6v-0.7c0-2.6,0.5-4.8,1.5-6.6s2.4-3.2,4-4.2s3.5-1.5,5.5-1.5
					c2.3,0,4.1,0.4,5.3,1.3s2.2,1.8,2.8,2.9h0.8v-4.1h4.9v32.7L123.2,49.8L123.2,49.8z M115.8,38.2c2.2,0,4-0.7,5.4-2.1
					c1.4-1.4,2.1-3.4,2.1-6v-0.4c0-2.6-0.7-4.5-2.1-5.9c-1.4-1.4-3.2-2.1-5.3-2.1s-3.9,0.7-5.3,2.1c-1.4,1.4-2.1,3.4-2.1,5.9v0.4
					c0,2.6,0.7,4.6,2.1,6C111.9,37.5,113.7,38.2,115.8,38.2z"/>
				<path class="st11" d="M99.2,29.4c0-2.4-0.5-4.6-1.4-6.4c-1-1.8-2.3-3.2-4-4.3c-1.7-1-3.7-1.5-6-1.5s-4.4,0.5-6.2,1.6
					c-0.9,0.5-1.7,1.1-2.4,1.9c-0.1,0.1-0.2,0.2-0.3,0.3c-0.2,0.3-0.5,0.6-0.7,0.9c-0.3,0.4-0.6,0.9-0.8,1.3c-1,1.9-1.5,4-1.5,6.5
					v0.6c0,2.5,0.5,4.7,1.5,6.5s2.4,3.3,4.2,4.3s3.9,1.5,6.3,1.5c2.1,0,3.9-0.3,5.3-1s2.6-1.5,3.4-2.5c0.2-0.3,0.4-0.6,0.7-0.8
					c0.5-0.7,1-1.4,1.3-2L94.4,34c-0.5,1.1-1.2,2.1-2.2,2.9c-0.9,0.8-2.4,1.3-4.2,1.3c-2,0-3.7-0.6-5-1.9c-0.1-0.1-0.2-0.2-0.2-0.2
					c-0.1-0.1-0.2-0.2-0.2-0.2c-0.2-0.2-0.3-0.4-0.5-0.7c-0.7-1-1-2.2-1.1-3.5c0-0.1,0-0.3,0-0.4h18.4L99.2,29.4L99.2,29.4
					L99.2,29.4z M84.2,27.4L81.6,30h-0.8c0-0.7,0-1.7,0.1-2.6c0.1-0.3,0.1-0.6,0.2-1s0.2-0.6,0.3-0.9c0.4-0.9,0.9-1.7,1.7-2.4
					c1.2-1,2.7-1.6,4.6-1.6s3.4,0.5,4.6,1.6c1.2,1,1.8,2.5,2,4.2L84.2,27.4L84.2,27.4z"/>
				<path class="st11" d="M155.8,29.4c0-2.4-0.5-4.6-1.4-6.4c-1-1.8-2.3-3.2-4-4.3c-1.7-1-3.7-1.5-6-1.5s-4.4,0.5-6.2,1.6
					c-0.9,0.5-1.7,1.1-2.4,1.9c-0.1,0.1-0.2,0.2-0.3,0.3c-0.3,0.3-0.5,0.6-0.7,0.9c-0.3,0.4-0.6,0.9-0.8,1.3c-1,1.9-1.5,4-1.5,6.5
					v0.6c0,2.5,0.5,4.7,1.5,6.5s2.4,3.3,4.2,4.3c1.8,1,3.9,1.5,6.4,1.5c2.1,0,3.9-0.3,5.3-1s2.6-1.5,3.4-2.5
					c0.2-0.3,0.4-0.6,0.7-0.8c0.5-0.7,1-1.4,1.3-2L151,34c-0.5,1.1-1.2,2.1-2.2,2.9c-1,0.8-2.4,1.3-4.2,1.3c-2,0-3.7-0.6-5-1.9
					c-0.1-0.1-0.2-0.2-0.2-0.2s-0.1-0.2-0.2-0.2c-0.2-0.2-0.3-0.4-0.5-0.7c-0.6-1-1-2.2-1.1-3.5c0-0.1,0-0.3,0-0.4h18.4L155.8,29.4
					L155.8,29.4L155.8,29.4z M140.8,27.4l-2.6,2.6h-0.8c0-0.7,0-1.7,0.1-2.6c0.1-0.3,0.1-0.6,0.2-1s0.2-0.6,0.3-0.9
					c0.4-0.9,0.9-1.7,1.7-2.4c1.2-1,2.7-1.6,4.6-1.6s3.4,0.5,4.6,1.6c1.2,1,1.8,2.5,2,4.2L140.8,27.4L140.8,27.4z"/>
				<path class="st11" d="M160.1,42.5V17.2h4.9V20h0.8c0.4-1,1-1.7,1.9-2.2s1.9-0.7,3.2-0.7h2.9v4.5h-3.1c-1.6,0-2.9,0.5-4,1.3
					s-1.6,2.3-1.6,4.1v15.5L160.1,42.5L160.1,42.5L160.1,42.5z"/>
				<path class="st11" d="M197.1,26.3c0-2.9-0.9-5.2-2.7-6.8c-1.8-1.6-4.2-2.4-7.4-2.4c-2,0-3.8,0.3-5.2,1c-1.4,0.6-2.6,1.5-3.4,2.6
					c-0.9,1.1-1.5,2.2-1.9,3.5l4.7,1.5c0.3-1.3,0.9-2.4,1.8-3.2c0.9-0.8,2.2-1.2,3.9-1.2s3.1,0.4,3.9,1.3c0.9,0.9,1.3,2,1.3,3.4v4.2
					h-0.8l-2.6-2.6h-3.9c-2.6,0-4.8,0.6-6.6,1.9s-2.6,3.1-2.6,5.5c0,1.6,0.4,3,1.2,4.2c0.8,1.1,1.9,2,3.2,2.6
					c1.4,0.6,2.9,0.9,4.6,0.9s3-0.2,4-0.7c1-0.5,1.8-1,2.3-1.7c0.5-0.6,0.9-1.2,1.2-1.7h0.8v4.1h4.1L197.1,26.3L197.1,26.3
					L197.1,26.3z M192.2,31.9c0,2-0.6,3.6-1.9,4.8c-1.2,1.2-2.9,1.7-4.8,1.7c-1.5,0-2.6-0.3-3.5-1c-0.9-0.7-1.3-1.5-1.3-2.6
					s0.4-2,1.2-2.5s1.9-0.9,3.2-0.9h7L192.2,31.9L192.2,31.9L192.2,31.9z"/>
			</g>
		</g>
	</g>
	<text transform="matrix(1 0 0 1 216.35 42.25)" class="st9 st12 st13">docs</text>
</g>
</svg>
